<svg xmlns="http://www.w3.org/2000/svg" width="320" height="200">
<rect width="320" height="200" fill="#1e1e2e" rx="8"/>
<rect x="0" y="0" width="320" height="32" fill="#11111b" rx="8"/>
<rect x="0" y="20" width="320" height="12" fill="#11111b"/>
<rect x="12" y="8" width="16" height="16" fill="#89b4fa" rx="3"/>
<rect x="36" y="8" width="60" height="6" fill="#585b70" rx="2"/>
<rect x="104" y="8" width="40" height="6" fill="#585b70" rx="2"/>
<rect x="0" y="32" width="80" height="168" fill="#181825" rx="0"/>
<rect x="0" y="40" width="80" height="12" fill="#181825"/>
<rect x="8" y="40" width="16" height="12" fill="#89b4fa" rx="2"/>
<rect x="28" y="42" width="40" height="5" fill="#585b70" rx="2"/>
<rect x="8" y="60" width="16" height="12" fill="#585b70" rx="2"/>
<rect x="28" y="62" width="40" height="5" fill="#585b70" rx="2"/>
<rect x="8" y="80" width="16" height="12" fill="#585b70" rx="2"/>
<rect x="28" y="82" width="40" height="5" fill="#585b70" rx="2"/>
<rect x="80" y="32" width="240" height="168" fill="#1e1e2e"/>
<rect x="88" y="36" width="224" height="28" fill="#181825" rx="4"/>
<rect x="96" y="42" width="14" height="14" fill="#89b4fa" rx="2"/>
<rect x="116" y="42" width="36" height="5" fill="#585b70" rx="2"/>
<rect x="160" y="42" width="36" height="5" fill="#585b70" rx="2"/>
<rect x="88" y="72" width="224" height="6" fill="#585b70" rx="2"/>
<rect x="88" y="84" width="224" height="24" fill="#181825" rx="4"/>
<rect x="88" y="116" width="224" height="24" fill="#181825" rx="4"/>
<rect x="88" y="148" width="224" height="24" fill="#181825" rx="4"/>
<text x="14" y="186" fill="#585b70" font-size="10" font-family="monospace">blue</text>
</svg>
